<svg width="100" height="100" viewBox="0 0 100 100" fill="none" xmlns="http://www.w3.org/2000/svg">
<rect width="100" height="100" rx="15" fill="#121110"/>
<rect x="13.5" y="13.5" width="73" height="73" rx="4.5" stroke="#55514A"/>
<path d="M33 66.28L40.488 33.64H46.824L45.096 41.32H45.416L39.656 66.28H33ZM56.104 66.28L60.648 46.44C61.2453 43.7947 61.0533 41.8107 60.072 40.488C59.1333 39.1227 57.4907 38.44 55.144 38.44C52.3707 38.44 49.96 39.336 47.912 41.128C45.864 42.8773 44.4773 45.3093 43.752 48.424L44.712 40.488C46.2053 38.1413 48.104 36.3067 50.408 34.984C52.7547 33.6613 55.208 33 57.768 33C61.5653 33 64.3387 34.1947 66.088 36.584C67.8373 38.9307 68.264 42.0667 67.368 45.992L62.696 66.28H56.104Z" fill="#4EA8FF"/>
</svg>
